<?xml version="1.0" standalone="no"?>
<!DOCTYPE svg PUBLIC "-//W3C//DTD SVG 20010904//EN"
 "http://www.w3.org/TR/2001/REC-SVG-20010904/DTD/svg10.dtd">
<svg version="1.0" xmlns="http://www.w3.org/2000/svg"
 width="1024.000000pt" height="1024.000000pt" viewBox="0 0 1024.000000 1024.000000"
 preserveAspectRatio="xMidYMid meet">

<g transform="translate(0.000000,1024.000000) scale(0.100000,-0.100000)"
fill="#000000" stroke="none">
<path d="M0 5120 l0 -5120 5120 0 5120 0 0 5120 0 5120 -5120 0 -5120 0 0
-5120z m5811 2452 c163 -164 304 -310 313 -324 16 -24 15 -28 -26 -109 -76
-148 -93 -216 -92 -354 2 -149 27 -230 111 -354 123 -181 322 -291 529 -291
128 0 293 50 377 114 19 15 43 26 54 26 26 0 667 -640 671 -671 4 -25 42 14
-1738 -1785 -1069 -1080 -1174 -1184 -1189 -1184 -9 0 -94 80 -190 177 -96 98
-241 246 -323 329 -100 103 -148 158 -148 173 0 12 16 43 35 68 113 147 156
342 116 521 -28 129 -77 216 -176 317 -88 89 -155 132 -258 165 -59 19 -84 21
-195 18 -145 -5 -223 -26 -312 -82 -112 -71 -59 -105 -442 282 -187 189 -338
349 -336 357 2 7 650 664 1442 1459 1026 1031 1445 1446 1460 1446 15 0 111
-91 317 -298z"/>
<path d="M5344 7368 c-71 -73 -633 -640 -1249 -1261 -616 -620 -1122 -1132
-1124 -1138 -2 -6 73 -88 167 -181 135 -135 174 -169 189 -164 51 20 209 55
291 65 348 42 718 -168 884 -504 110 -221 128 -477 50 -685 -11 -30 -29 -76
-39 -103 l-18 -47 156 -155 c91 -91 163 -155 175 -155 12 -1 275 257 749 733
402 404 970 975 1263 1269 318 320 532 542 532 553 0 11 -68 87 -157 177
l-158 159 -40 -4 c-22 -3 -85 -17 -140 -32 -134 -37 -319 -40 -438 -7 -154 42
-308 129 -426 238 -251 232 -342 590 -237 934 20 63 36 119 36 124 0 16 -303
316 -320 316 -9 0 -75 -60 -146 -132z m56 -1063 c74 -38 84 -95 50 -293 -11
-64 -25 -148 -31 -187 -6 -38 -15 -94 -21 -123 -5 -29 -10 -78 -10 -109 -1
-49 3 -59 31 -86 l31 -32 288 -5 c261 -5 291 -7 327 -25 86 -43 112 -145 56
-221 -16 -21 -246 -256 -512 -521 -331 -329 -498 -488 -528 -503 -80 -40 -171
-6 -192 72 -12 46 -7 106 21 238 9 47 23 119 29 160 7 41 16 99 22 129 22 128
4 194 -58 220 -18 7 -126 12 -303 14 -272 2 -276 2 -324 27 -65 33 -91 81 -82
148 7 46 13 53 524 561 284 283 530 523 547 533 36 22 96 23 135 3z"/>
</g>
</svg>
